#!OML:ASF F:\VICON\USERDATA\INSTALL\rory3\rory3.ASF
:FULLY-SPECIFIED
:DEGREES
10
root -0.6484520000000009 17.3439 -12.23049999999999 -0.9196800000000045 5.838119999999995 -1.1973500000000012
lfemur -20.576499999999992 -3.2876100000000035 -24.94039999999999
ltibia 45.9609
lfoot -20.120699999999996 -4.839219999999999
ltoes -2.1136100000000067
rfemur -16.737900000000003 -3.9532 21.67900000000001
rtibia 105.49200000000005
rfoot 21.48100000000003 -7.94831
rtoes 20.745800000000006
lowerback nan 1.288969999999999 -0.6732820000000004
upperback 0.10499400000000136 1.61571 0.4058429999999973
thorax -9.60202 0.8143770000000001 0.4161540000000005
lowerneck -19.7993 -5.200000000000005 -1.3852800000000012
upperneck 15.0818 -7.527090000000001 4.2330200000000024
head 8.14386 -3.207809999999997 0.6818130000000001
lclavicle 2.0126900000000036e-14 -1.292100000000001e-15
lhumerus -54.9753 -14.938500000000001 99.9882
lradius 104.801
lwrist 35.3404
lhand -23.8128 0.5541849999999995
lfingers nan
lthumb 2.6581399999999995 30.517399999999995
rclavicle 2.0126900000000036e-14 -1.292100000000001e-15
rhumerus -49.7117 12.5337 -101.741
rradius 100.85500000000002
rwrist -7.755650000000005
rhand -20.1174 nan
rfingers nan
rthumb 6.226480000000002 8.122989999999994
11
root -0.6306849999999998 17.2345 -11.759000000000002 -0.9629499999999953 5.157749999999991 0.7917889999999979
lfemur -18.361400000000003 -3.0014200000000018 -27.411799999999992
ltibia 46.4882
lfoot -22.37339999999999 -2.373750000000001
ltoes -3.1032300000000195
rfemur -19.6226 -4.28145 18.46520000000002
rtibia 108.12800000000004
rfoot 21.90199999999999 -5.643979999999999
rtoes 27.247700000000002
lowerback nan 1.5573700000000006 -2.67643000000001
upperback 0.19341600000000025 1.49791 -0.20823100000000028
thorax -9.76052 0.836121 0.910007
lowerneck -19.6723 -5.103209999999999 -1.3384400000000016
upperneck 14.811200000000003 -7.429289999999997 4.413569999999998
head 8.03506 -3.148629999999997 0.7525679999999999
lclavicle 2.335719999999998e-14 -1.0833799999999981e-14
lhumerus -52.91320000000001 -15.670600000000004 99.7454
lradius 105.012
lwrist 35.4325
lhand -25.7582 4.145659999999999
lfingers nan
lthumb 0.7792890000000007 34.123999999999995
rclavicle 2.335719999999998e-14 -1.0833799999999981e-14
rhumerus -50.4856 11.769399999999996 -101.741
rradius 100.21699999999998
rwrist -8.25201
rhand -19.234899999999996 nan
rfingers nan
rthumb 7.078429999999997 8.795940000000002
12
root -0.6216889999999993 17.1224 -11.304499999999974 -0.7640490000000058 4.9488899999999925 2.0290100000000093
lfemur -17.0328 -3.019530000000002 -28.963
ltibia 46.75759999999999
lfoot -23.61 -0.7340649999999922
ltoes -1.111150000000011
rfemur -23.031699999999997 -5.139479999999983 16.43009999999998
rtibia 110.38699999999994
rfoot 17.985600000000023 -5.52988
rtoes 14.173300000000015
lowerback nan 1.5419399999999994 -4.01056
upperback 0.24286200000000124 1.1704299999999996 -0.5173299999999952
thorax -9.77297 0.734902 1.4145900000000002
lowerneck -19.635900000000003 -4.953450000000002 -1.3543899999999987
upperneck 14.508699999999997 -7.23187 4.560640000000002
head 7.92885 -3.0486300000000015 0.8329759999999998
lclavicle -1.8052100000000016e-14 -5.963540000000012e-15
lhumerus -50.5579 -16.2929 99.441
lradius 105.176
lwrist 35.3259
lhand -26.847699999999996 4.835039999999998
lfingers nan
lthumb -0.27296400000000265 34.8146
rclavicle -1.8052100000000016e-14 -5.963540000000012e-15
rhumerus -51.1192 11.350399999999993 -101.602
rradius 99.52009999999999
rwrist -7.997489999999998
rhand -18.689499999999995 nan
rfingers nan
rthumb 7.604899999999995 8.987969999999999
13
root -0.6171679999999995 17.0121 -10.87370000000004 -0.303654999999996 4.695649999999994 1.8641300000000047
lfemur -15.8195 -3.1954200000000066 -28.8508
ltibia 47.04240000000001
lfoot -25.10709999999999 1.0977899999999883
ltoes 0.5706030000000286
rfemur -27.2748 -5.858229999999996 16.563599999999976
rtibia 112.24100000000004
rfoot 17.16340000000002 -4.738530000000001
rtoes 12.884599999999985
lowerback nan 1.344330000000001 -4.0428799999999985
upperback 0.14321000000000184 0.9205040000000008 -0.3418609999999973
thorax -9.83479 0.6247969999999999 1.6890299999999998
lowerneck -19.506000000000004 -4.833299999999998 -1.5204800000000005
upperneck 14.0741 -6.990289999999996 4.5228300000000035
head 7.75834 -2.959389999999999 0.8845219999999995
lclavicle 4.733559999999994e-15 7.65321000000001e-15
lhumerus -48.18130000000001 -16.519499999999997 99.1563
lradius 105.492
lwrist 35.0636
lhand -27.532100000000003 3.897210000000001
lfingers nan
lthumb -0.9340209999999989 33.8749
rclavicle 4.733559999999994e-15 7.65321000000001e-15
rhumerus -51.8971 11.134800000000004 -101.297
rradius 99.24380000000001
rwrist -7.232550000000003
rhand -17.972699999999996 nan
rfingers nan
rthumb 8.296680000000002 9.034500000000001
14
root -0.6060240000000002 16.9403 -10.423099999999986 0.18072200000000072 4.321349999999997 1.2996399999999961
lfemur -14.5634 -3.306090000000003 -28.302600000000012
ltibia 47.11189999999999
lfoot -26.53010000000004 2.1919300000000144
ltoes 0.6765059999999767
rfemur -31.22120000000001 -6.310399999999991 17.37330000000002
rtibia 113.30499999999995
rfoot 16.31540000000002 -3.9947999999999984
rtoes 4.225700000000001
lowerback nan 1.1753199999999997 -3.609390000000007
upperback 0.1780429999999975 0.8261029999999995 -0.08641969999999843
thorax -9.60031 0.5622350000000004 1.7492499999999989
lowerneck -19.9619 -4.786809999999997 -1.6486600000000005
upperneck 13.9567 -6.870410000000003 4.467169999999999
head 7.79437 -2.9095600000000013 0.8939019999999995
lclavicle -3.4352500000000043e-15 -7.752600000000013e-15
lhumerus -45.61829999999999 -16.6586 98.7734
lradius 105.985
lwrist 34.7719
lhand -27.4242 4.532729999999997
lfingers nan
lthumb -0.8297600000000018 34.5109
rclavicle -3.4352500000000043e-15 -7.752600000000013e-15
rhumerus -52.5207 10.999599999999997 -100.991
rradius 99.3382
rwrist -6.585889999999993
rhand -17.778600000000004 nan
rfingers nan
rthumb 8.483960000000002 9.48572
15
root -0.5916949999999996 16.9118 -9.954980000000047 0.43790799999999974 4.353179999999996 0.9716040000000095
lfemur -12.855800000000002 -3.6010500000000025 -28.01980000000001
ltibia 46.88559999999999
lfoot -27.48490000000003 2.7625699999999958
ltoes 0.026845500000003852
rfemur -34.63560000000001 -7.020670000000011 17.956300000000024
rtibia 113.5850000000001
rfoot 15.4557 -3.302400000000002
rtoes 2.64151
lowerback nan 0.81826 -3.441320000000004
upperback 0.3128690000000005 0.4318119999999972 0.26068599999999664
thorax -9.31324 0.36938200000000054 2.1319900000000023
lowerneck -20.3598 -4.562920000000002 -1.9617
upperneck 13.9382 -6.446169999999997 4.336689999999998
head 7.84642 -2.732250000000001 0.9480989999999996
lclavicle 4.149629999999991e-15 3.913569999999991e-16
lhumerus -43.11040000000002 -16.293200000000002 98.4996
lradius 106.854
lwrist 34.6382
lhand -25.6059 5.156309999999998
lfingers nan
lthumb 0.926393000000001 35.13400000000001
rclavicle 4.149629999999991e-15 3.913569999999991e-16
rhumerus -53.3871 11.241099999999996 -100.64
rradius 100.032
rwrist -6.642409999999995
rhand -17.4973 nan
rfingers nan
rthumb 8.7555 9.9712
16
root -0.5780159999999996 16.9114 -9.487039999999984 0.5614129999999977 4.537979999999999 0.7870249999999976
lfemur -10.7785 -3.9871499999999918 -27.900899999999986
ltibia 46.127300000000005
lfoot -27.776299999999967 3.325530000000019
ltoes -2.0863600000000186
rfemur -37.73430000000002 -7.665250000000006 18.436599999999984
rtibia 113.23399999999994
rfoot 15.64489999999999 -2.038939999999993
rtoes 8.530469999999998
lowerback nan 0.4404600000000005 -3.39276000000001
upperback 0.39834300000000256 -0.031393499999996965 0.5925049999999972
thorax -9.28343 0.1528820000000013 2.5805999999999973
lowerneck -20.6292 -4.3509699999999984 -2.17045
upperneck 13.9436 -6.023580000000002 3.97109
head 7.87225 -2.57637 0.9104889999999995
lclavicle 7.702910000000014e-15 -4.96961999999994e-17
lhumerus -40.728899999999996 -15.903599999999999 98.373
lradius 107.701
lwrist 34.8846
lhand -24.6967 4.9166000000000025
lfingers nan
lthumb 1.8044600000000002 34.88870000000001
rclavicle 7.702910000000014e-15 -4.96961999999994e-17
rhumerus -54.339 11.437599999999996 -100.187
rradius 101.161
rwrist -7.572859999999995
rhand -16.7374 nan
rfingers nan
rthumb 9.48873 10.0349
17
root -0.5701260000000001 16.9203 -9.01638999999995 0.5447190000000015 4.294769999999993 0.8124580000000043
lfemur -8.353929999999984 -3.912789999999999 -28.046799999999994
ltibia 45.01700000000001
lfoot -27.68769999999994 3.991200000000002
ltoes -5.500830000000007
rfemur -40.1786 -7.661250000000004 18.742699999999985
rtibia 112.44599999999997
rfoot 12.640500000000012 -1.1560799999999931
rtoes -0.48508900000000654
lowerback nan 0.4607520000000002 -3.489140000000005
upperback 0.5284820000000003 -0.03920610000000235 0.576348000000003
thorax -9.37926 0.15322100000000138 2.6223500000000017
lowerneck -21.388999999999996 -4.352700000000001 -1.6723200000000005
upperneck 14.1388 -6.093720000000001 3.5704400000000005
head 8.03739 -2.6088899999999997 0.67422
lclavicle 9.193790000000011e-16 -1.0088299999999992e-14
lhumerus -38.44280000000002 -16.3697 98.0065
lradius 108.235
lwrist 35.1831
lhand -23.6363 2.7020299999999993
lfingers nan
lthumb 2.8286499999999983 32.663
rclavicle 9.193790000000011e-16 -1.0088299999999992e-14
rhumerus -55.0419 10.740100000000004 -99.9131
rradius 102.28200000000001
rwrist -8.584259999999999
rhand -16.4902 nan
rfingers nan
rthumb 9.72718 10.1924
18
root -0.5633509999999998 16.9398 -8.536389999999967 0.6106569999999953 4.016060000000004 0.8201470000000048
lfemur -6.042070000000006 -3.75559 -28.160899999999998
ltibia 43.78770000000001
lfoot -27.147799999999947 4.429980000000021
ltoes -9.359489999999996
rfemur -42.238000000000014 -7.451949999999995 19.079899999999988
rtibia 111.18999999999994
rfoot 12.901199999999982 0.48331599999999586
rtoes 6.4472999999999985
lowerback nan 0.4614530000000009 -3.6445199999999907
upperback 0.5998570000000039 -0.07066479999999742 0.6472279999999988
thorax -9.42535 0.1469190000000008 2.797709999999996
lowerneck -21.8088 -4.348150000000002 -1.241550000000002
upperneck 14.0477 -6.126590000000001 3.14562
head 8.04851 -2.64081 0.45340000000000014
lclavicle 7.578669999999988e-16 -1.0933199999999992e-15
lhumerus -36.524100000000004 -16.5567 97.7916
lradius 108.903
lwrist 35.6805
lhand -22.2284 0.8273859999999993
lfingers nan
lthumb 4.188180000000002 30.766
rclavicle 7.578669999999988e-16 -1.0933199999999992e-15
rhumerus -55.9681 10.194799999999999 -99.6385
rradius 103.415
rwrist -9.426010000000002
rhand -16.4813 nan
rfingers nan
rthumb 9.73578 10.2583
